#!OML:ASF F:\VICON\USERDATA\INSTALL\rory3\rory3.ASF
:FULLY-SPECIFIED
:DEGREES
633
root 4.48204 15.524 2.00933 22.7497 -6.65144 0.979657
lowerback 12.4245 -2.76808 3.48767
upperback 3.98726 -3.23952 -0.366979
thorax -2.98553 -1.60101 -1.86285
lowerneck -13.9279 -0.667824 -2.48749
upperneck 37.4647 0.539969 -2.4654
head 15.531 -0.515059 -0.529677
rclavicle 2.62396e-014 3.77691e-015
rhumerus -63.1894 63.9007 -59.073
rradius 68.3539
rwrist -19.1744
rhand -7.47866 -39.2106
rfingers 7.12502
rthumb 18.4104 -68.3594
lclavicle 2.62396e-014 3.77691e-015
lhumerus -49.2941 -72.8772 43.3104
lradius 63.3679
lwrist 43.6329
lhand -16.1959 -28.0123
lfingers 7.12502
lthumb 10.0112 1.72964
rfemur -83.5113 -7.14492 23.4867
rtibia 45.4748
rfoot 38.7777 -0.578608
rtoes 6.3764
lfemur -58.8872 -2.4254 -30.9853
ltibia 63.2429
lfoot -25.103 5.15939
ltoes 12.2177
634
root 4.4834 15.5329 2.01172 22.7996 -6.53527 0.936682
lowerback 12.3349 -2.82828 3.62392
upperback 3.98474 -3.30549 -0.357622
thorax -2.95002 -1.63311 -1.9231
lowerneck -13.933 -0.644592 -2.49448
upperneck 37.5017 0.560333 -2.42261
head 15.5503 -0.502855 -0.507544
rclavicle 4.17448e-014 -3.18055e-015
rhumerus -62.9814 63.9298 -58.9423
rradius 68.3776
rwrist -19.2322
rhand -7.62804 -39.6665
rfingers 7.12502
rthumb 18.2667 -68.8289
lclavicle 4.17448e-014 -3.18055e-015
lhumerus -49.3174 -72.9409 43.4256
lradius 63.3035
lwrist 43.8421
lhand -16.7761 -28.2665
lfingers 7.12502
lthumb 9.45143 1.50161
rfemur -83.4888 -7.27074 23.6195
rtibia 45.4225
rfoot 38.7548 -0.487016
rtoes 6.56253
lfemur -58.8414 -2.65542 -30.8493
ltibia 63.1905
lfoot -25.1821 5.29093
ltoes 13.2061
635
root 4.47965 15.5347 2.01544 22.904 -6.61227 0.994722
lowerback 12.3529 -2.81719 3.45763
upperback 3.84115 -3.3069 -0.330209
thorax -3.09981 -1.63766 -1.79635
lowerneck -13.8716 -0.608737 -2.51528
upperneck 37.6235 0.643721 -2.49002
head 15.5979 -0.482529 -0.52048
rclavicle 7.15625e-015 -1.53064e-014
rhumerus -63.0113 64.109 -58.9517
rradius 68.4094
rwrist -19.4516
rhand -7.15276 -40.0876
rfingers 7.12502
rthumb 18.7239 -69.2065
lclavicle 7.15625e-015 -1.53064e-014
lhumerus -49.5872 -72.8555 43.7479
lradius 63.3053
lwrist 43.7362
lhand -16.0299 -27.7204
lfingers 7.12502
lthumb 10.1713 2.01375
rfemur -83.5769 -7.18709 23.5088
rtibia 45.3788
rfoot 38.8189 -0.401201
rtoes 6.61203
lfemur -58.8908 -2.75436 -30.8783
ltibia 63.1692
lfoot -25.294 5.50749
ltoes 13.1565
636
root 4.47553 15.5329 2.01392 23.0244 -6.65539 0.925621
lowerback 12.3976 -2.88221 3.35125
upperback 3.66845 -3.39522 -0.189434
thorax -3.29573 -1.68564 -1.56947
lowerneck -13.693 -0.486262 -2.65283
upperneck 37.639 0.917831 -2.6525
head 15.5672 -0.410947 -0.519179
rclavicle -1.86858e-014 1.76918e-014
rhumerus -62.6694 64.4474 -58.6578
rradius 68.3844
rwrist -19.6526
rhand -6.69319 -40.1816
rfingers 7.12502
rthumb 19.1659 -69.2572
lclavicle -1.86858e-014 1.76918e-014
lhumerus -50.7167 -72.5173 44.8576
lradius 63.3729
lwrist 43.4325
lhand -14.736 -27.1813
lfingers 7.12502
lthumb 11.4194 2.4877
rfemur -83.6715 -7.05736 23.5267
rtibia 45.3626
rfoot 38.8402 -0.47106
rtoes 6.74063
lfemur -59.04 -2.81028 -30.7689
ltibia 63.2107
lfoot -25.2694 5.75947
ltoes 13.5955
637
root 4.47116 15.5254 2.00978 23.0705 -6.58458 0.79411
lowerback 12.4675 -2.97293 3.41367
upperback 3.59591 -3.49731 -0.0601796
thorax -3.4107 -1.73823 -1.44825
lowerneck -13.6404 -0.414889 -2.91654
upperneck 37.7036 1.0675 -2.56527
head 15.5876 -0.376468 -0.411086
rclavicle 2.5842e-014 -3.26007e-014
rhumerus -62.1766 64.5751 -58.2995
rradius 68.293
rwrist -19.8297
rhand -6.55321 -40.0322
rfingers 7.12502
rthumb 19.3005 -69.0944
lclavicle 2.5842e-014 -3.26007e-014
lhumerus -51.4011 -72.0934 45.5634
lradius 63.3749
lwrist 42.9766
lhand -14.5055 -27.5543
lfingers 7.12502
lthumb 11.6417 2.10225
rfemur -83.6657 -6.96559 23.5784
rtibia 45.3683
rfoot 38.7712 -0.67493
rtoes 7.02797
lfemur -59.1623 -2.91016 -30.5548
ltibia 63.2921
lfoot -25.1645 5.91413
ltoes 13.9458
638
root 4.46353 15.5127 2.00673 23.0465 -6.58168 0.844184
lowerback 12.6277 -2.95919 3.33289
upperback 3.57794 -3.48262 -0.0709235
thorax -3.51212 -1.73182 -1.40838
lowerneck -13.77 -0.441299 -2.99811
upperneck 37.8564 1.01256 -2.42894
head 15.6939 -0.396073 -0.350232
rclavicle 3.75703e-014 -2.42517e-014
rhumerus -62.0906 64.5875 -58.2635
rradius 68.2622
rwrist -20.1535
rhand -6.51212 -39.7918
rfingers 7.12502
rthumb 19.34 -68.8501
lclavicle 3.75703e-014 -2.42517e-014
lhumerus -50.9425 -71.8275 45.2051
lradius 63.3554
lwrist 42.659
lhand -14.4681 -27.6725
lfingers 7.12502
lthumb 11.6777 1.98204
rfemur -83.6595 -6.83279 23.3338
rtibia 45.4092
rfoot 38.6719 -0.674689
rtoes 6.99979
lfemur -59.2274 -3.00368 -30.546
ltibia 63.3714
lfoot -25.13 6.05016
ltoes 12.7315
639
root 4.45501 15.5095 2.00186 23.0259 -6.72696 1.05404
lowerback 12.7381 -2.85132 3.03502
upperback 3.59052 -3.37757 -0.149156
thorax -3.54204 -1.67901 -1.33533
lowerneck -13.9314 -0.508274 -2.95101
upperneck 37.9351 0.917802 -2.44449
head 15.7729 -0.432 -0.382851
rclavicle 2.34566e-014 -9.93923e-016
rhumerus -62.0761 64.1464 -58.347
rradius 68.0656
rwrist -19.8214
rhand -6.6391 -39.5141
rfingers 7.12502
rthumb 19.2179 -68.5846
lclavicle 2.34566e-014 -9.93923e-016
lhumerus -50.1355 -71.9308 44.5174
lradius 63.4613
lwrist 42.81
lhand -14.3084 -27.1009
lfingers 7.12502
lthumb 11.8317 2.54484
rfemur -83.6795 -6.63741 22.8837
rtibia 45.4299
rfoot 38.637 -0.992435
rtoes 7.38156
lfemur -59.2605 -3.06816 -30.7253
ltibia 63.3835
lfoot -25.1193 6.2552
ltoes 9.81347
640
root 4.449 15.5087 2.00165 23.0492 -6.84705 1.23442
lowerback 12.6896 -2.74452 2.82208
upperback 3.61383 -3.2687 -0.207031
thorax -3.47809 -1.62384 -1.29676
lowerneck -14.0107 -0.575672 -2.9307
upperneck 37.9157 0.844185 -2.51071
head 15.7832 -0.467059 -0.427072
rclavicle 4.37326e-014 -2.50469e-014
rhumerus -62.0984 64.0664 -58.3022
rradius 68.0282
rwrist -19.4762
rhand -6.54268 -39.5438
rfingers 7.12502
rthumb 19.3106 -68.6051
lclavicle 4.37326e-014 -2.50469e-014
lhumerus -49.5162 -72.2133 44.0279
lradius 63.6088
lwrist 43.048
lhand -14.7982 -26.8441
lfingers 7.12502
lthumb 11.3594 2.82825
rfemur -83.7395 -6.55485 22.6006
rtibia 45.4386
rfoot 38.6402 -1.4391
rtoes 7.79004
lfemur -59.3018 -3.17918 -30.8643
ltibia 63.388
lfoot -25.1097 6.42598
ltoes 12.5203
641
root 4.44217 15.5038 2.00359 23.1033 -6.8153 1.26036
lowerback 12.6587 -2.73168 2.79123
upperback 3.60281 -3.25609 -0.195965
thorax -3.46996 -1.61755 -1.27103
lowerneck -14.1042 -0.584926 -2.92493
upperneck 37.9292 0.848468 -2.54503
head 15.8132 -0.469459 -0.442701
rclavicle 5.12864e-014 -2.42517e-014
rhumerus -61.988 63.9677 -58.1795
rradius 68.0111
rwrist -18.9979
rhand -6.20446 -39.6914
rfingers 7.12502
rthumb 19.6358 -68.7198
lclavicle 5.12864e-014 -2.42517e-014
lhumerus -49.4964 -72.4177 44.0737
lradius 63.6975
lwrist 42.9962
lhand -15.2348 -26.9074
lfingers 7.12502
lthumb 10.9383 2.78765
rfemur -83.7614 -6.55081 22.5625
rtibia 45.378
rfoot 38.6536 -1.65486
rtoes 7.73886
lfemur -59.3769 -3.32901 -30.8057
ltibia 63.417
lfoot -25.1125 6.52701
ltoes 13.5537
